<svg xmlns="http://www.w3.org/2000/svg" fill="#FEE494" width="64" height="64" viewBox="0 0 240.887 240.887">
  <g>
    <path d="M185.765,79.024c-3.515-3.515-9.212-3.515-12.729,0c-3.515,3.515-3.515,9.213,0,12.728c15.82,15.821,15.82,41.563,0,57.384 c-3.515,3.515-3.515,9.213,0,12.728c1.758,1.757,4.061,2.636,6.364,2.636s4.606-0.879,6.364-2.636 C208.603,139.024,208.603,101.863,185.765,79.024z"/>
    <path d="M212.643,52.146c-3.515-3.515-9.212-3.516-12.729,0c-3.515,3.515-3.515,9.213,0,12.728 c30.642,30.642,30.642,80.499,0,111.141c-3.515,3.515-3.515,9.213,0,12.728c1.758,1.758,4.061,2.636,6.364,2.636 s4.606-0.879,6.364-2.636C250.302,151.082,250.302,89.805,212.643,52.146z"/>
    <path d="M156.646,108.318c-0.331,0-0.657,0.021-0.979,0.055V40.586c0-4.971-4.029-9-9-9c-32.458,0-60.52,19.134-73.531,46.708 c-0.243-0.02-0.487-0.037-0.735-0.037H9c-4.971,0-9,4.029-9,9v66.374c0,4.971,4.029,9,9,9h63.399c0.248,0,0.492-0.017,0.735-0.037 c13.012,27.574,41.074,46.708,73.531,46.708c4.971,0,9-4.029,9-9v-67.789c0.322,0.035,0.648,0.055,0.979,0.055c4.971,0,9-4.029,9-9 v-6.25C165.646,112.348,161.616,108.318,156.646,108.318z M18,144.63V96.256h49.109c-1.117,5.36-1.709,10.91-1.709,16.596v15.182 c0,5.686,0.593,11.236,1.709,16.596H18z M83.399,128.034v-15.182c0-31.83,23.63-58.232,54.267-62.616V190.65 C107.029,186.267,83.399,159.864,83.399,128.034z"/>
  </g>
</svg>